<svg width="245" height="227" viewBox="0 0 245 227" fill="none" xmlns="http://www.w3.org/2000/svg">
<g clip-path="url(#clip0_5080_53608)">
<path d="M0 16C0 7.16344 7.16344 0 16 0H229C237.837 0 245 7.16344 245 16V227H0V16Z" fill="#00C386" fill-opacity="0.1"/>
<path opacity="0.2" d="M122.574 221C67.6785 221 33 179.33 33 113.426C33 47.5223 67.6785 6 122.574 6C177.322 6 212 47.5223 212 113.426C212 179.33 177.322 221 122.574 221ZM122.574 180.069C151.054 180.069 168.91 154.505 168.91 113.574C168.91 72.6426 151.054 46.9313 122.574 46.9313C93.9456 46.9313 76.2374 72.6426 76.2374 113.574C76.2374 154.505 93.9456 180.069 122.574 180.069Z" fill="url(#paint0_linear_5080_53608)"/>
<path fill-rule="evenodd" clip-rule="evenodd" d="M125.037 70.4274L116.631 79.0413L127.005 85.7016L137.381 92.3649L136.397 84.7338C167.192 80.5217 178.558 102.114 178.558 102.114C177.836 71.9855 145.794 68.6897 134.302 68.4781L133.443 61.8135L125.037 70.4274Z" fill="url(#paint1_radial_5080_53608)"/>
<g clip-path="url(#clip1_5080_53608)">
<path d="M120.402 100.052C121.348 102.215 121.762 104.475 121.695 106.69C121.537 112.498 118.095 117.981 112.413 120.467C108.139 122.337 103.478 122.125 99.5659 120.273C98.281 119.667 97.0776 118.878 95.9967 117.935C95.2241 117.262 94.5135 116.506 93.8788 115.677C93.1413 114.715 92.5056 113.642 91.9976 112.481C90.9851 110.167 90.5824 107.74 90.7235 105.383C91.0494 99.7397 94.4549 94.4842 99.9871 92.0639C104.218 90.2127 108.828 90.4001 112.712 92.2038C113.906 92.7556 115.029 93.4577 116.053 94.299C116.547 94.7043 117.017 95.1411 117.461 95.6131C118.661 96.8771 119.663 98.3637 120.403 100.054L120.402 100.052Z" fill="#E57C1B"/>
<path d="M102.712 90.8946L99.321 92.3782L111.739 120.763L115.13 119.28L102.712 90.8946Z" fill="#E57C1B"/>
<path d="M123.118 98.8641C124.064 101.027 124.478 103.287 124.411 105.501C124.253 111.31 120.811 116.793 115.129 119.279C110.855 121.149 106.194 120.937 102.282 119.084C100.997 118.479 99.7937 117.69 98.7128 116.747C97.9402 116.074 97.2296 115.318 96.5949 114.489C95.8574 113.527 95.2217 112.454 94.7137 111.293C93.7011 108.979 93.2984 106.552 93.4395 104.195C93.7655 98.5515 97.171 93.296 102.703 90.8757C106.935 89.0245 111.544 89.2118 115.428 91.0156C116.622 91.5674 117.745 92.2695 118.769 93.1108C119.263 93.5161 119.733 93.9529 120.177 94.4249C121.377 95.6888 122.379 97.1755 123.119 98.866L123.118 98.8641Z" fill="#F7D424"/>
<path d="M120.958 99.8092C123.867 106.459 120.832 114.207 114.182 117.116C113.533 117.4 112.87 117.627 112.202 117.8C112.001 117.855 111.799 117.901 111.592 117.944C110.079 118.264 108.547 118.304 107.061 118.086C106.567 118.019 106.073 117.918 105.591 117.792C103.311 117.195 101.208 115.99 99.5338 114.28C98.4449 113.173 97.5354 111.85 96.8767 110.345C93.9673 103.694 96.9967 95.9445 103.647 93.0352C104.446 92.6856 105.265 92.4208 106.086 92.2378C108.454 91.7128 110.87 91.8704 113.082 92.6168C113.556 92.7729 114.021 92.9583 114.475 93.1702C116.03 93.8896 117.444 94.9173 118.626 96.2102C119.568 97.2445 120.365 98.4532 120.958 99.8092Z" fill="#FFAA01"/>
<g filter="url(#filter0_d_5080_53608)">
<path fill-rule="evenodd" clip-rule="evenodd" d="M98.9964 109.041L112.563 114.169L118.003 100.724L111.239 94.6767L99.1442 99.9693L98.9964 109.041ZM109.146 102.834C111.919 101.773 114.18 101.4 114.452 102.02C114.723 102.641 112.915 104.049 110.254 105.365L112.346 110.147L109.755 111.281L107.662 106.499C104.89 107.561 102.628 107.933 102.357 107.313C102.085 106.693 103.894 105.284 106.555 103.968L105.974 102.642L102.519 104.154L101.384 101.562L110.888 97.4038L112.022 99.9956L108.566 101.508L109.146 102.834ZM103.173 106.827C103.408 107.364 105.92 106.783 108.782 105.531C111.645 104.278 113.775 102.827 113.541 102.29C113.342 101.838 111.523 102.182 109.242 103.052L109.874 104.497C109.471 104.704 109.042 104.902 108.593 105.099C108.144 105.295 107.708 105.476 107.282 105.631L106.65 104.186C104.462 105.272 102.975 106.374 103.173 106.827Z" fill="#FEDB1D"/>
</g>
</g>
<path d="M158.219 162.565L202.59 153.57L205.817 143.289L209.331 132.092L226.205 78.2982L200.689 83.257L188.48 85.6309L182.069 86.8755L178.64 97.748L172.835 116.179L158.219 162.565Z" fill="url(#paint2_linear_5080_53608)"/>
<path fill-rule="evenodd" clip-rule="evenodd" d="M187.859 79.7795C184.8 80.4018 181.541 83.3728 180.587 86.4279L180.345 87.202L180.342 87.2025L156.6 162.881L158.2 162.557L182.048 86.8759L226.186 78.2948L226.542 77.157C227.497 74.1052 225.792 72.1346 222.728 72.7512L187.859 79.7795ZM202.575 153.563L202.316 154.394L202.317 154.398C201.362 157.449 198.107 160.423 195.044 161.039L160.172 168.072C157.113 168.691 155.402 166.714 156.358 163.663L156.604 162.882C156.604 162.882 192.618 155.604 200.895 153.911L224.568 78.6109L226.181 78.2975L202.568 153.565C202.571 153.564 202.573 153.564 202.575 153.563Z" fill="#80EEC3"/>
<path d="M221.119 77.3828C220.402 77.5288 220 77.0641 220.224 76.3474C220.447 75.6308 221.213 74.9319 221.93 74.7891C222.65 74.6423 223.049 75.1078 222.829 75.8237C222.605 76.5404 221.839 77.2392 221.119 77.386L221.119 77.3828Z" fill="white"/>
<path d="M215.559 78.2636C214.843 78.4097 214.44 77.9449 214.664 77.2283C214.888 76.5116 215.654 75.8128 216.371 75.67C217.091 75.5264 217.49 75.9886 217.269 76.7046C217.045 77.4212 216.279 78.1201 215.56 78.2669L215.559 78.2636Z" fill="white"/>
<path d="M175.252 163.626C174.589 162.921 175.019 161.44 176.213 160.318C177.407 159.196 178.911 158.857 179.574 159.562C180.237 160.267 179.806 161.748 178.613 162.87C177.419 163.992 175.914 164.331 175.252 163.626Z" fill="white"/>
<path d="M226.318 73.7748L226.329 73.7887C226.328 73.7847 226.323 73.7778 226.318 73.7748Z" fill="#C6D0DC"/>
<path d="M160.191 168.079L195.063 161.047C198.127 160.434 201.381 157.457 202.336 154.405L226.561 77.1656C226.974 75.8466 226.889 74.7291 226.413 73.9354L228.924 77.7807C229.529 78.5822 229.672 79.7857 229.22 81.2303L204.99 158.467C204.035 161.519 200.781 164.493 197.717 165.109L162.845 172.142C161.107 172.491 159.806 172.009 159.183 170.965L156.686 167.134C157.36 168.015 158.591 168.404 160.194 168.079L160.191 168.079Z" fill="#0DCB81"/>
<path d="M86.4099 176.831L42.9725 164.068L40.6382 153.549L38.0965 142.092L25.8931 87.0507L50.8904 94.177L62.8509 97.588L69.132 99.3772L71.6164 110.503L75.8213 129.364L86.4099 176.831Z" fill="url(#paint3_linear_5080_53608)"/>
<path fill-rule="evenodd" clip-rule="evenodd" d="M63.9351 91.8021C66.9289 92.6841 69.9212 95.9234 70.6103 99.049L70.7861 99.8464L70.783 99.8455L87.9544 177.276L87.9634 177.278L88.1424 178.077C88.8325 181.199 86.9594 183.022 83.9646 182.143L49.8229 172.149C46.8239 171.273 43.8357 168.031 43.1456 164.909L43.1467 164.906L42.9607 164.059L42.9472 164.055L25.8677 87.0374L25.8754 87.0395L25.6187 85.8755C24.9286 82.7531 26.7965 80.9359 29.7955 81.8126L63.9351 91.8021ZM27.4475 87.4879L44.5831 164.54C51.624 166.622 79.4479 174.782 86.3885 176.817L69.1102 99.3685L27.4475 87.4879Z" fill="#80EEC3"/>
<path d="M31.0201 86.5817C31.7213 86.7885 32.1623 86.36 32.0007 85.6268C31.839 84.8936 31.1359 84.1317 30.4337 83.928C29.7295 83.7201 29.2916 84.1497 29.45 84.8819C29.6117 85.6151 30.3148 86.3769 31.0191 86.5848L31.0201 86.5817Z" fill="white"/>
<path d="M36.4867 87.9364C37.1878 88.1433 37.6288 87.7148 37.4672 86.9816C37.3056 86.2484 36.6025 85.4865 35.9003 85.2828C35.195 85.0781 34.7581 85.5044 34.9166 86.2366C35.0782 86.9698 35.7814 87.7317 36.4857 87.9396L36.4867 87.9364Z" fill="white"/>
<path d="M69.3288 176.429C70.0494 175.784 69.7475 174.271 68.6545 173.051C67.5614 171.831 66.0912 171.365 65.3705 172.01C64.6499 172.656 64.9518 174.168 66.0448 175.389C67.1378 176.609 68.6081 177.075 69.3288 176.429Z" fill="white"/>
<path d="M26.1581 82.522L26.1454 82.5349C26.1466 82.531 26.153 82.5246 26.1581 82.522Z" fill="#C6D0DC"/>
<path d="M83.9588 182.144L49.817 172.15C46.817 171.277 43.8299 168.032 43.1398 164.91L25.6201 85.8791C25.322 84.5296 25.5026 83.4235 26.0446 82.6734L23.2131 86.2895C22.5423 87.0363 22.2968 88.2231 22.6233 89.7011L40.1472 168.73C40.8373 171.852 43.8255 175.094 46.8245 175.97L80.9663 185.964C82.6677 186.461 84.0051 186.092 84.7152 185.106L87.5321 181.502C86.7848 182.323 85.5249 182.604 83.9556 182.143L83.9588 182.144Z" fill="#0DCB81"/>
<path fill-rule="evenodd" clip-rule="evenodd" d="M126.491 177.233L132.256 166.665L120.465 163.061L108.675 159.454L112.258 167.882C84.9903 178.585 69.0016 161.714 69.0016 161.714C77.3294 188.828 105.933 185.556 118.541 182.656L120.73 187.801L124.419 181.035C124.533 180.996 124.591 180.975 124.591 180.975L124.538 180.816L126.491 177.233Z" fill="url(#paint4_radial_5080_53608)"/>
<g clip-path="url(#clip2_5080_53608)">
<path d="M153.454 146.46C153.328 148.818 152.683 151.023 151.629 152.971C148.879 158.091 143.342 161.444 137.149 161.114C132.49 160.865 128.421 158.583 125.757 155.171C124.881 154.053 124.16 152.808 123.618 151.479C123.229 150.531 122.934 149.537 122.739 148.511C122.512 147.32 122.426 146.076 122.493 144.811C122.628 142.288 123.358 139.939 124.542 137.896C127.368 133 132.77 129.834 138.8 130.155C143.412 130.401 147.447 132.639 150.108 135.995C150.926 137.023 151.614 138.155 152.152 139.367C152.411 139.951 152.635 140.552 152.819 141.173C153.324 142.841 153.552 144.62 153.454 146.462L153.454 146.46Z" fill="#E57C1B"/>
<path d="M141.756 130.332L138.06 130.135L136.41 161.073L140.106 161.271L141.756 130.332Z" fill="#E57C1B"/>
<path d="M156.41 146.616C156.284 148.974 155.64 151.179 154.585 153.128C151.836 158.247 146.298 161.6 140.105 161.27C135.446 161.021 131.377 158.739 128.713 155.327C127.837 154.209 127.116 152.964 126.574 151.636C126.186 150.688 125.89 149.693 125.695 148.667C125.468 147.476 125.382 146.233 125.45 144.967C125.584 142.444 126.314 140.096 127.499 138.053C130.324 133.157 135.727 129.99 141.757 130.312C146.369 130.558 150.403 132.795 153.064 136.151C153.882 137.18 154.571 138.311 155.108 139.523C155.368 140.107 155.591 140.709 155.776 141.329C156.28 142.998 156.508 144.776 156.41 146.619L156.41 146.616Z" fill="#F7D424"/>
<path d="M154.057 146.493C153.67 153.741 147.479 159.301 140.231 158.914C139.523 158.877 138.829 158.782 138.155 158.636C137.951 158.595 137.749 158.545 137.545 158.492C136.05 158.098 134.663 157.445 133.433 156.584C133.022 156.301 132.626 155.99 132.252 155.66C130.482 154.103 129.145 152.082 128.417 149.802C127.94 148.325 127.722 146.734 127.809 145.093C128.196 137.845 134.383 132.28 141.631 132.667C142.502 132.713 143.353 132.845 144.169 133.05C146.52 133.644 148.608 134.87 150.249 136.53C150.603 136.882 150.936 137.257 151.246 137.65C152.312 138.991 153.114 140.544 153.589 142.23C153.967 143.578 154.136 145.015 154.057 146.493Z" fill="#FFAA01"/>
<g filter="url(#filter1_d_5080_53608)">
<path d="M138.474 155.022L138.644 151.832L136.341 153.23L135.354 151.577L138.769 149.504L138.893 147.177L136.615 148.576L135.602 146.923L139.017 144.85L139.294 139.646L134.3 139.379L134.476 136.084L148.387 136.827L148.211 140.121L143.191 139.854L143.055 142.39L145.523 140.87L146.536 142.523L142.931 144.717L142.807 147.045L145.247 145.549L146.26 147.203L142.683 149.372L142.371 155.23L138.474 155.022Z" fill="#FEDB1D"/>
</g>
</g>
<g opacity="0.2" clip-path="url(#clip3_5080_53608)" filter="url(#filter2_f_5080_53608)">
<path d="M68.0103 110.874C68.9566 113.037 69.3707 115.297 69.3033 117.511C69.1458 123.32 65.7037 128.803 60.0219 131.289C55.7473 133.159 51.087 132.947 47.1745 131.094C45.8896 130.489 44.6863 129.7 43.6053 128.757C42.8328 128.084 42.1222 127.328 41.4875 126.499C40.7499 125.537 40.1143 124.464 39.6063 123.303C38.5937 120.989 38.191 118.562 38.3321 116.205C38.6581 110.562 42.0636 105.306 47.5958 102.886C51.8271 101.034 56.4368 101.222 60.3209 103.026C61.5143 103.577 62.6374 104.279 63.6621 105.121C64.1559 105.526 64.626 105.963 65.0693 106.435C66.2695 107.699 67.2716 109.185 68.0112 110.876L68.0103 110.874Z" fill="#E57C1B"/>
<path d="M50.3204 101.717L46.9294 103.2L59.3479 131.585L62.7388 130.102L50.3204 101.717Z" fill="#E57C1B"/>
<path d="M70.7264 109.686C71.6726 111.849 72.0868 114.109 72.0194 116.324C71.8619 122.133 68.4198 127.615 62.738 130.101C58.4634 131.971 53.803 131.759 49.8906 129.907C48.6057 129.301 47.4023 128.512 46.3214 127.569C45.5488 126.896 44.8382 126.14 44.2035 125.311C43.466 124.349 42.8303 123.276 42.3223 122.115C41.3098 119.801 40.9071 117.374 41.0482 115.017C41.3742 109.374 44.7796 104.118 50.3118 101.698C54.5432 99.8467 59.1528 100.034 63.037 101.838C64.2304 102.39 65.3535 103.092 66.3781 103.933C66.872 104.338 67.3421 104.775 67.7854 105.247C68.9855 106.511 69.9876 107.998 70.7273 109.688L70.7264 109.686Z" fill="#F7D424"/>
<path d="M68.5664 110.631C71.4758 117.281 68.4408 125.029 61.7907 127.938C61.1413 128.222 60.4784 128.449 59.8106 128.622C59.6097 128.677 59.4072 128.723 59.201 128.766C57.6878 129.086 56.1554 129.126 54.6697 128.908C54.1759 128.841 53.6818 128.74 53.1996 128.614C50.9196 128.017 48.817 126.812 47.1424 125.102C46.0535 123.995 45.144 122.672 44.4853 121.167C41.576 114.516 44.6053 106.767 51.2554 103.857C52.0544 103.508 52.8741 103.243 53.6944 103.06C56.0627 102.535 58.4787 102.692 60.6905 103.439C61.1644 103.595 61.6301 103.78 62.0838 103.992C63.639 104.712 65.0523 105.739 66.2346 107.032C67.1771 108.067 67.9732 109.275 68.5664 110.631Z" fill="#FFAA01"/>
<g filter="url(#filter3_d_5080_53608)">
<path d="M63.5183 113.728C62.8766 113.392 62.0368 113.316 61.0106 113.5L60.9701 113.408C61.6086 112.943 62.0219 112.35 62.217 111.622C62.416 110.892 62.3464 110.149 62.0149 109.391C61.5087 108.234 60.6419 107.598 59.4126 107.484C59.2842 107.475 59.1529 107.464 59.0201 107.466C58.002 107.454 56.7489 107.747 55.2505 108.341L54.4825 106.586L53.0399 107.217L53.8019 108.959L52.2904 109.62L51.5284 107.878L50.0819 108.511L50.8405 110.245L47.7014 111.618L48.8354 114.21L50.4059 113.523L54.0764 121.913L52.5059 122.6L53.6398 125.192L56.7789 123.818L57.5762 125.641L59.0227 125.008L58.2254 123.186L59.7369 122.524L60.5342 124.347L61.9767 123.716L61.1777 121.889C62.8715 121.125 64.0703 120.183 64.7659 119.056C65.4821 117.901 65.5665 116.705 65.0292 115.477C64.6667 114.649 64.1648 114.064 63.5174 113.726L63.5183 113.728ZM54.5447 111.937L55.6803 111.441C56.7292 110.982 57.4609 110.971 57.8703 111.409C57.9588 111.504 58.031 111.615 58.0895 111.749C58.2764 112.176 58.2564 112.564 58.0332 112.922C57.8122 113.275 57.4088 113.58 56.8263 113.835L55.6061 114.369L54.5419 111.936L54.5447 111.937ZM59.4513 119.278L58.0284 119.9L56.7825 117.052L58.1267 116.464C58.7682 116.184 59.3108 116.089 59.7555 116.178C60.2007 116.274 60.5235 116.546 60.7207 116.996C61.1426 117.961 60.7207 118.722 59.4532 119.277L59.4513 119.278Z" fill="#FEDB1D"/>
</g>
</g>
<g opacity="0.2" clip-path="url(#clip4_5080_53608)" filter="url(#filter4_f_5080_53608)">
<path d="M184.55 130.88C183.719 128.98 183.355 126.995 183.414 125.049C183.552 119.946 186.577 115.129 191.568 112.945C195.324 111.302 199.418 111.488 202.856 113.116C203.985 113.648 205.042 114.341 205.992 115.169C206.67 115.76 207.295 116.425 207.852 117.153C208.5 117.998 209.059 118.941 209.505 119.961C210.395 121.994 210.748 124.126 210.624 126.197C210.338 131.155 207.346 135.772 202.486 137.899C198.768 139.525 194.718 139.361 191.306 137.776C190.257 137.291 189.27 136.674 188.37 135.935C187.936 135.579 187.523 135.195 187.134 134.781C186.079 133.67 185.199 132.364 184.549 130.879L184.55 130.88Z" fill="#E57C1B"/>
<path d="M200.091 138.926L203.07 137.623L192.16 112.684L189.181 113.988L200.091 138.926Z" fill="#E57C1B"/>
<path d="M182.163 131.925C181.331 130.025 180.967 128.04 181.027 126.094C181.165 120.99 184.189 116.173 189.181 113.99C192.936 112.346 197.031 112.533 200.468 114.16C201.597 114.692 202.654 115.385 203.604 116.214C204.283 116.805 204.907 117.469 205.465 118.198C206.113 119.043 206.671 119.985 207.118 121.005C208.007 123.039 208.361 125.171 208.237 127.242C207.951 132.2 204.959 136.817 200.098 138.944C196.381 140.57 192.331 140.405 188.918 138.821C187.87 138.336 186.883 137.719 185.983 136.98C185.549 136.624 185.136 136.24 184.746 135.825C183.692 134.715 182.812 133.409 182.162 131.923L182.163 131.925Z" fill="#F7D424"/>
<path d="M184.059 131.095C181.503 125.253 184.17 118.446 190.012 115.89C190.583 115.64 191.165 115.441 191.752 115.289C191.929 115.241 192.107 115.2 192.288 115.162C193.617 114.881 194.963 114.846 196.269 115.037C196.703 115.097 197.137 115.185 197.56 115.296C199.563 115.821 201.411 116.879 202.882 118.382C203.839 119.354 204.638 120.516 205.216 121.839C207.773 127.682 205.111 134.49 199.268 137.046C198.566 137.354 197.846 137.586 197.126 137.747C195.045 138.208 192.922 138.07 190.979 137.414C190.563 137.277 190.154 137.114 189.755 136.928C188.389 136.296 187.147 135.393 186.108 134.257C185.28 133.348 184.581 132.286 184.059 131.095Z" fill="#FFAA01"/>
<g filter="url(#filter5_d_5080_53608)">
<path d="M188.498 128.373C189.062 128.668 189.799 128.735 190.701 128.573L190.737 128.655C190.176 129.063 189.813 129.584 189.641 130.224C189.466 130.865 189.527 131.518 189.819 132.183C190.263 133.2 191.025 133.759 192.105 133.859C192.218 133.867 192.333 133.877 192.45 133.875C193.344 133.885 194.445 133.628 195.762 133.106L196.436 134.648L197.704 134.094L197.034 132.564L198.362 131.983L199.032 133.513L200.303 132.957L199.636 131.433L202.394 130.227L201.398 127.95L200.018 128.553L196.793 121.182L198.173 120.579L197.177 118.301L194.419 119.508L193.718 117.907L192.448 118.463L193.148 120.064L191.82 120.645L191.12 119.044L189.852 119.598L190.554 121.203C189.066 121.875 188.013 122.702 187.402 123.692C186.772 124.707 186.698 125.757 187.17 126.836C187.489 127.564 187.93 128.078 188.499 128.375L188.498 128.373ZM196.382 129.946L195.384 130.383C194.463 130.786 193.82 130.795 193.46 130.411C193.382 130.328 193.319 130.23 193.267 130.112C193.103 129.737 193.121 129.396 193.317 129.081C193.511 128.772 193.865 128.503 194.377 128.279L195.449 127.81L196.384 129.947L196.382 129.946ZM192.071 123.498L193.321 122.951L194.416 125.453L193.235 125.969C192.671 126.216 192.194 126.299 191.804 126.22C191.413 126.136 191.129 125.898 190.956 125.502C190.585 124.654 190.956 123.985 192.069 123.498L192.071 123.498Z" fill="#FEDB1D"/>
</g>
</g>
</g>
<defs>
<filter id="filter0_d_5080_53608" x="98.9963" y="94.6768" width="19.9479" height="19.4927" filterUnits="userSpaceOnUse" color-interpolation-filters="sRGB">
<feFlood flood-opacity="0" result="BackgroundImageFix"/>
<feColorMatrix in="SourceAlpha" type="matrix" values="0 0 0 0 0 0 0 0 0 0 0 0 0 0 0 0 0 0 127 0" result="hardAlpha"/>
<feOffset dx="0.941562"/>
<feColorMatrix type="matrix" values="0 0 0 0 0.898039 0 0 0 0 0.486275 0 0 0 0 0.105882 0 0 0 0.75 0"/>
<feBlend mode="normal" in2="BackgroundImageFix" result="effect1_dropShadow_5080_53608"/>
<feBlend mode="normal" in="SourceGraphic" in2="effect1_dropShadow_5080_53608" result="shape"/>
</filter>
<filter id="filter1_d_5080_53608" x="134.3" y="136.084" width="14.8337" height="19.145" filterUnits="userSpaceOnUse" color-interpolation-filters="sRGB">
<feFlood flood-opacity="0" result="BackgroundImageFix"/>
<feColorMatrix in="SourceAlpha" type="matrix" values="0 0 0 0 0 0 0 0 0 0 0 0 0 0 0 0 0 0 127 0" result="hardAlpha"/>
<feOffset dx="0.746312"/>
<feColorMatrix type="matrix" values="0 0 0 0 0.898039 0 0 0 0 0.486275 0 0 0 0 0.105882 0 0 0 0.75 0"/>
<feBlend mode="normal" in2="BackgroundImageFix" result="effect1_dropShadow_5080_53608"/>
<feBlend mode="normal" in="SourceGraphic" in2="effect1_dropShadow_5080_53608" result="shape"/>
</filter>
<filter id="filter2_f_5080_53608" x="-7.02818" y="55.0602" width="124.391" height="122.865" filterUnits="userSpaceOnUse" color-interpolation-filters="sRGB">
<feFlood flood-opacity="0" result="BackgroundImageFix"/>
<feBlend mode="normal" in="SourceGraphic" in2="BackgroundImageFix" result="shape"/>
<feGaussianBlur stdDeviation="20.2121" result="effect1_foregroundBlur_5080_53608"/>
</filter>
<filter id="filter3_d_5080_53608" x="47.7014" y="106.586" width="18.4216" height="19.0552" filterUnits="userSpaceOnUse" color-interpolation-filters="sRGB">
<feFlood flood-opacity="0" result="BackgroundImageFix"/>
<feColorMatrix in="SourceAlpha" type="matrix" values="0 0 0 0 0 0 0 0 0 0 0 0 0 0 0 0 0 0 127 0" result="hardAlpha"/>
<feOffset dx="0.746312"/>
<feColorMatrix type="matrix" values="0 0 0 0 0.898039 0 0 0 0 0.486275 0 0 0 0 0.105882 0 0 0 0.75 0"/>
<feBlend mode="normal" in2="BackgroundImageFix" result="effect1_dropShadow_5080_53608"/>
<feBlend mode="normal" in="SourceGraphic" in2="effect1_dropShadow_5080_53608" result="shape"/>
</filter>
<filter id="filter4_f_5080_53608" x="125.704" y="56.4861" width="140.256" height="138.915" filterUnits="userSpaceOnUse" color-interpolation-filters="sRGB">
<feFlood flood-opacity="0" result="BackgroundImageFix"/>
<feBlend mode="normal" in="SourceGraphic" in2="BackgroundImageFix" result="shape"/>
<feGaussianBlur stdDeviation="25.5" result="effect1_foregroundBlur_5080_53608"/>
</filter>
<filter id="filter5_d_5080_53608" x="186.865" y="117.907" width="16.1845" height="16.7412" filterUnits="userSpaceOnUse" color-interpolation-filters="sRGB">
<feFlood flood-opacity="0" result="BackgroundImageFix"/>
<feColorMatrix in="SourceAlpha" type="matrix" values="0 0 0 0 0 0 0 0 0 0 0 0 0 0 0 0 0 0 127 0" result="hardAlpha"/>
<feOffset dx="0.655688"/>
<feColorMatrix type="matrix" values="0 0 0 0 0.898039 0 0 0 0 0.486275 0 0 0 0 0.105882 0 0 0 0.75 0"/>
<feBlend mode="normal" in2="BackgroundImageFix" result="effect1_dropShadow_5080_53608"/>
<feBlend mode="normal" in="SourceGraphic" in2="effect1_dropShadow_5080_53608" result="shape"/>
</filter>
<linearGradient id="paint0_linear_5080_53608" x1="42.293" y1="115.784" x2="211.846" y2="123.187" gradientUnits="userSpaceOnUse">
<stop stop-color="#0DCB81" stop-opacity="0"/>
<stop offset="0.442515" stop-color="#0DCB81"/>
<stop offset="0.931276" stop-color="#0DCB81" stop-opacity="0"/>
</linearGradient>
<radialGradient id="paint1_radial_5080_53608" cx="0" cy="0" r="1" gradientUnits="userSpaceOnUse" gradientTransform="translate(115.695 80.5397) rotate(8.84158) scale(69.8378 93.208)">
<stop stop-color="#0DCB81"/>
<stop offset="1" stop-color="#0DCB81" stop-opacity="0"/>
</radialGradient>
<linearGradient id="paint2_linear_5080_53608" x1="131.406" y1="175.868" x2="239.22" y2="81.1797" gradientUnits="userSpaceOnUse">
<stop stop-color="#024229"/>
<stop offset="0.1268" stop-color="#07472E"/>
<stop offset="0.2991" stop-color="#165E42"/>
<stop offset="0.4976" stop-color="#277255"/>
<stop offset="0.7156" stop-color="#2F976E"/>
<stop offset="0.947" stop-color="#38D095"/>
<stop offset="1" stop-color="#3BE0A0"/>
</linearGradient>
<linearGradient id="paint3_linear_5080_53608" x1="111.985" y1="192.383" x2="12.6792" y2="88.8067" gradientUnits="userSpaceOnUse">
<stop stop-color="#024229"/>
<stop offset="0.1268" stop-color="#07472E"/>
<stop offset="0.2991" stop-color="#165E42"/>
<stop offset="0.4976" stop-color="#277255"/>
<stop offset="0.7156" stop-color="#2F976E"/>
<stop offset="0.947" stop-color="#38D095"/>
<stop offset="1" stop-color="#3BE0A0"/>
</linearGradient>
<radialGradient id="paint4_radial_5080_53608" cx="0" cy="0" r="1" gradientUnits="userSpaceOnUse" gradientTransform="translate(134.855 166.984) rotate(-175.247) scale(66.0811 37.4615)">
<stop stop-color="#0DCB81"/>
<stop offset="1" stop-color="#0DCB81" stop-opacity="0"/>
</radialGradient>
<clipPath id="clip0_5080_53608">
<path d="M0 16C0 7.16344 7.16344 0 16 0H229C237.837 0 245 7.16344 245 16V227H0V16Z" fill="white"/>
</clipPath>
<clipPath id="clip1_5080_53608">
<rect width="33.9645" height="31.0022" fill="white" transform="translate(85.7864 98.2756) rotate(-23.6292)"/>
</clipPath>
<clipPath id="clip2_5080_53608">
<rect width="33.9645" height="31.0022" fill="white" transform="translate(123.321 129.332) rotate(3.05331)"/>
</clipPath>
<clipPath id="clip3_5080_53608">
<rect width="33.9645" height="31.0022" fill="white" transform="translate(33.396 109.098) rotate(-23.6292)"/>
</clipPath>
<clipPath id="clip4_5080_53608">
<rect width="29.8402" height="27.2376" fill="white" transform="translate(214.959 132.44) rotate(156.371)"/>
</clipPath>
</defs>
</svg>
